# xmcd
#
# Track frame offsets: 
#        150
#        16087
#        35382
#        54220
#        68095
#        85303
#        98170
#        116233
#        132518
#        150668
#        166545
#
# Disc length: 2435 seconds
#
# Revision: 0
# Processed by: cddbd v1.5.2PL0 Copyright (c) Steve Scherf et al.
# Submitted via: ExactAudioCopy v1.0b3
#
DISCID=7f09810b
DTITLE=Dani Daraîche - Complicité
DYEAR=2012
DGENRE=Country
TTITLE0=Mon amour, mon ami (f Michel Canapé)
TTITLE1=Viens avec moi (f SylDan)
TTITLE2=Dans tes yeux (f Jonathan Godin)
TTITLE3=Two-Step en Acadie (f Laurie Leblanc) 
TTITLE4=Irène (f Gilles Daraîche)
TTITLE5=La fleur du printemps (f Rhéal Leblanc)
TTITLE6=Dans la boucane et le bruit (f Stephen Faulkner)
TTITLE7=Je m'sens très seule (f Richard Gauthier)
TTITLE8=Malgré le temps (f Paul Daraîche)
TTITLE9=Personne ne venait plus (f Francois Vaillant)
TTITLE10=Ton Regard (f David Bernatchez)
EXTD=
EXTT0=
EXTT1=
EXTT2=
EXTT3=
EXTT4=
EXTT5=
EXTT6=
EXTT7=
EXTT8=
EXTT9=
EXTT10=
PLAYORDER=
